<svg version="1.1" xmlns="http://www.w3.org/2000/svg" viewBox="0 0 459.08128675740954 471.118848520302" width="918.1625735148191" height="942.237697040604">
  <!-- svg-source:excalidraw -->
  
  <defs>
    <style class="style-fonts">
      
    </style>
    
  </defs>
  <rect x="0" y="0" width="459.08128675740954" height="471.118848520302" fill="#fffce8"></rect><g stroke-linecap="round" transform="translate(10 10) rotate(0 219.54064337870432 225.559424260151)"><path d="M65.28 65.38 C75.11 49.48, 92.7 39.42, 109.04 29.8 C125.38 20.19, 145.07 12.32, 163.31 7.69 C181.56 3.05, 199.54 2.32, 218.49 1.97 C237.44 1.63, 258.77 1.08, 277.01 5.61 C295.25 10.13, 311.84 19.34, 327.96 29.12 C344.09 38.91, 360.3 50.5, 373.76 64.3 C387.23 78.09, 399.42 95.03, 408.77 111.89 C418.11 128.75, 424.81 146.9, 429.83 165.43 C434.85 183.96, 438.3 203.4, 438.89 223.06 C439.49 242.72, 438.42 264.33, 433.4 283.4 C428.38 302.47, 418.22 320.61, 408.77 337.47 C399.32 354.33, 389.58 370.78, 376.69 384.56 C363.79 398.33, 348.19 410.28, 331.4 420.12 C314.61 429.96, 294.47 438.58, 275.95 443.6 C257.43 448.62, 239.03 450.38, 220.28 450.25 C201.53 450.13, 181.54 448, 163.43 442.84 C145.32 437.68, 128.13 429.05, 111.61 419.31 C95.09 409.57, 78.17 398.1, 64.31 384.4 C50.45 370.7, 37.75 353.48, 28.45 337.12 C19.16 320.76, 13.13 304.82, 8.53 286.25 C3.92 267.69, 0.96 245.77, 0.83 225.73 C0.69 205.7, 3.19 184.74, 7.71 166.03 C12.23 147.33, 7.39 138.16, 27.93 113.52 C48.47 88.87, 100.47 36.2, 130.95 18.15 C161.43 0.11, 209.33 1.72, 210.81 5.23 M363.33 54.95 C379.5 64.47, 392.93 83.38, 403.58 100.21 C414.22 117.04, 421.39 137.47, 427.2 155.92 C433.02 174.38, 436.77 191.33, 438.46 210.94 C440.15 230.54, 441.58 254.15, 437.35 273.54 C433.11 292.93, 421.71 310.06, 413.07 327.26 C404.43 344.47, 397.93 362.04, 385.49 376.76 C373.06 391.48, 354.19 404.71, 338.46 415.59 C322.73 426.47, 309 436.16, 291.1 442.02 C273.2 447.89, 250.62 449.66, 231.05 450.78 C211.48 451.9, 192.32 452.44, 173.69 448.72 C155.05 444.99, 135.52 437.25, 119.24 428.43 C102.97 419.62, 89.98 408.97, 76.04 395.82 C62.11 382.67, 45.98 366.1, 35.65 349.53 C25.32 332.96, 19.51 315.19, 14.09 296.39 C8.66 277.6, 4.54 256.19, 3.11 236.76 C1.69 217.33, 2.29 198.8, 5.54 179.83 C8.79 160.86, 14.62 139.78, 22.61 122.95 C30.6 106.12, 40.46 93.18, 53.47 78.87 C66.48 64.57, 84.28 48.72, 100.66 37.11 C117.05 25.5, 133.71 15.03, 151.76 9.22 C169.82 3.4, 190.13 3.09, 208.97 2.22 C227.82 1.36, 246.34 0.58, 264.82 4.04 C283.3 7.5, 303.26 14.43, 319.84 22.99 C336.43 31.55, 357.38 49.2, 364.32 55.38 C371.25 61.55, 364.14 56.76, 361.46 60.04" stroke="#1e1e1e" stroke-width="4" fill="none"></path></g></svg>